<?xml version="1.0" encoding="utf-8"?>
<!-- Generator: Adobe Illustrator 24.0.1, SVG Export Plug-In . SVG Version: 6.00 Build 0)  -->
<svg version="1.1" id="Camada_1" xmlns="http://www.w3.org/2000/svg" xmlns:xlink="http://www.w3.org/1999/xlink" x="0px" y="0px"
	 viewBox="0 0 32 32" style="enable-background:new 0 0 32 32;" xml:space="preserve">
<style type="text/css">
	.st0{fill:url(#SVGID_1_);}
	.st1{fill:url(#SVGID_2_);}
	.st2{fill:url(#SVGID_3_);}
</style>
<linearGradient id="SVGID_1_" gradientUnits="userSpaceOnUse" x1="5" y1="16" x2="27" y2="16">
	<stop  offset="0" style="stop-color:#392D69"/>
	<stop  offset="0.4383" style="stop-color:#865BC4"/>
	<stop  offset="1" style="stop-color:#392D69"/>
</linearGradient>
<path class="st0" d="M8,7c0.6,0,1,0.4,1,1c0,0.6,0.4,1,1,1s1-0.4,1-1c0-1.3-0.8-2.4-2-2.8V5c0-0.6-0.4-1-1-1S7,4.4,7,5v0.2
	C5.8,5.6,5,6.7,5,8c0,1.2,0.8,2.3,1.9,2.7l1.5,0.5C8.7,11.3,9,11.7,9,12c0,0.6-0.4,1-1,1s-1-0.4-1-1c0-0.6-0.4-1-1-1s-1,0.4-1,1
	c0,1.3,0.8,2.4,2,2.8V15c0,0.6,0.4,1,1,1s1-0.4,1-1v-0.2c1.2-0.4,2-1.5,2-2.8c0-1.2-0.8-2.3-1.9-2.7L7.6,8.8C7.3,8.7,7,8.3,7,8
	C7,7.4,7.4,7,8,7z M24,25c-0.6,0-1-0.4-1-1c0-0.6-0.4-1-1-1s-1,0.4-1,1c0,1.3,0.8,2.4,2,2.8V27c0,0.6,0.4,1,1,1s1-0.4,1-1v-0.2
	c1.2-0.4,2-1.5,2-2.8c0-1.2-0.8-2.3-1.9-2.7l-1.5-0.5C23.3,20.7,23,20.3,23,20c0-0.6,0.4-1,1-1s1,0.4,1,1c0,0.6,0.4,1,1,1s1-0.4,1-1
	c0-1.3-0.8-2.4-2-2.8V17c0-0.6-0.4-1-1-1s-1,0.4-1,1v0.2c-1.2,0.4-2,1.5-2,2.8c0,1.2,0.8,2.3,1.9,2.7l1.5,0.5
	c0.3,0.1,0.6,0.5,0.6,0.8C25,24.6,24.6,25,24,25z"/>
<linearGradient id="SVGID_2_" gradientUnits="userSpaceOnUse" x1="1" y1="16" x2="31" y2="16">
	<stop  offset="0" style="stop-color:#392D69"/>
	<stop  offset="0.4383" style="stop-color:#865BC4"/>
	<stop  offset="1" style="stop-color:#392D69"/>
</linearGradient>
<path class="st1" d="M15,16v-2c0-0.6-0.4-1-1-1s-1,0.4-1,1v2c0,0.6-0.4,1-1,1H4c-0.6,0-1-0.4-1-1V4c0-0.6,0.4-1,1-1h8
	c0.6,0,1-0.4,1-1s-0.4-1-1-1H4C2.3,1,1,2.3,1,4v12c0,1.7,1.3,3,3,3h8C13.7,19,15,17.7,15,16z M28,13h-8c-1.7,0-3,1.3-3,3v2
	c0,0.6,0.4,1,1,1s1-0.4,1-1v-2c0-0.6,0.4-1,1-1h8c0.6,0,1,0.4,1,1v12c0,0.6-0.4,1-1,1h-8c-0.6,0-1,0.4-1,1s0.4,1,1,1h8
	c1.7,0,3-1.3,3-3V16C31,14.3,29.7,13,28,13z"/>
<linearGradient id="SVGID_3_" gradientUnits="userSpaceOnUse" x1="6" y1="15.9998" x2="26" y2="15.9998">
	<stop  offset="0" style="stop-color:#392D69"/>
	<stop  offset="0.4383" style="stop-color:#865BC4"/>
	<stop  offset="1" style="stop-color:#392D69"/>
</linearGradient>
<path class="st2" d="M13,10c0,0.6,0.4,1,1,1s1-0.4,1-1V8c0-0.6,0.4-1,1-1h6l-1.6,1.2c-0.4,0.3-0.5,1-0.2,1.4C20.4,9.9,20.7,10,21,10
	c0.2,0,0.4-0.1,0.6-0.2l4-3C25.9,6.6,26,6.3,26,6s-0.1-0.6-0.4-0.8l-4-3c-0.4-0.3-1.1-0.2-1.4,0.2c-0.3,0.4-0.2,1.1,0.2,1.4L22,5h-6
	c-1.7,0-3,1.3-3,3V10z M19,22c0-0.6-0.4-1-1-1s-1,0.4-1,1v2c0,0.6-0.4,1-1,1h-6l1.6-1.2c0.4-0.3,0.5-1,0.2-1.4
	c-0.3-0.4-1-0.5-1.4-0.2l-4,3C6.1,25.4,6,25.7,6,26s0.1,0.6,0.4,0.8l4,3c0.2,0.1,0.4,0.2,0.6,0.2c0.3,0,0.6-0.1,0.8-0.4
	c0.3-0.4,0.2-1.1-0.2-1.4L10,27h6c1.7,0,3-1.3,3-3V22z"/>
</svg>
