<?xml version="1.0" encoding="utf-8"?>
<!-- Generator: Adobe Illustrator 24.0.1, SVG Export Plug-In . SVG Version: 6.00 Build 0)  -->
<svg version="1.1" id="Camada_1" xmlns="http://www.w3.org/2000/svg" xmlns:xlink="http://www.w3.org/1999/xlink" x="0px" y="0px"
	 viewBox="0 0 512 512" style="enable-background:new 0 0 512 512;" xml:space="preserve">
<style type="text/css">
	.st0{fill:url(#SVGID_1_);}
	.st1{fill:url(#SVGID_2_);}
</style>
<g>
	<linearGradient id="SVGID_1_" gradientUnits="userSpaceOnUse" x1="20.3425" y1="256" x2="474.8351" y2="256">
		<stop  offset="0" style="stop-color:#392D69"/>
		<stop  offset="0.4383" style="stop-color:#775CA4"/>
		<stop  offset="1" style="stop-color:#392D69"/>
	</linearGradient>
	<path class="st0" d="M417.4,92.8c0.4,0.5,0.7,0.8,1.1,1.2c0.4,0.5,0.8,0.7,1.3,1.1c0.5,0.2,1,0.6,1.4,0.7c0.5,0.2,1.1,0.4,1.6,0.5
		c0.6,0.1,1.1,0.1,1.7,0.1s1.1-0.1,1.7-0.2c0.5,0,1.1-0.2,1.6-0.5s1-0.5,1.4-0.7c0.5-0.4,0.8-0.7,1.2-1.1c0.4-0.5,0.7-0.8,1.1-1.3
		c0.2-0.5,0.5-1,0.7-1.4c0.2-0.6,0.4-1.1,0.5-1.7c0.1-0.5,0.1-1.1,0.1-1.6c0-0.6-0.1-1.2-0.2-1.7c-0.1-0.6-0.2-1.1-0.5-1.6
		c-0.2-0.5-0.5-1-0.8-1.4c-5.4-7.8-11.2-15.1-17.4-22.2c-0.4-0.4-0.7-0.8-1.2-1.1c-0.5-0.4-1-0.7-1.4-1c-0.5-0.2-1-0.4-1.6-0.5
		c-0.5-0.2-1.1-0.2-1.6-0.4c-0.6,0-1.1,0-1.7,0.1c-0.5,0.1-1.1,0.2-1.6,0.4c-0.6,0.2-1.1,0.4-1.6,0.7c-0.5,0.2-0.8,0.6-1.3,1
		c-0.4,0.4-0.7,0.7-1.1,1.2c-0.4,0.5-0.6,0.8-0.8,1.4c-0.2,0.5-0.5,1-0.6,1.4c-0.1,0.6-0.2,1.1-0.2,1.7c-0.1,0.6-0.1,1.1,0,1.7
		c0.1,0.5,0.2,1.1,0.4,1.6c0.2,0.5,0.5,1.1,0.7,1.6c0.2,0.5,0.6,0.8,1,1.3C406.9,78.8,412.3,85.6,417.4,92.8z M439.7,133.2
		c0.2,0.5,0.5,1,0.8,1.4c0.2,0.5,0.6,0.8,1.1,1.2c0.4,0.5,0.8,0.7,1.2,1.1c0.5,0.2,1,0.6,1.6,0.7c0.5,0.2,1,0.4,1.6,0.5
		c0.5,0.1,1.1,0.1,1.6,0.1c0.6,0,1.2,0,1.7-0.1c0.6-0.1,1.1-0.4,1.6-0.5c0.5-0.2,1-0.5,1.4-0.8c0.5-0.4,1-0.7,1.3-1.1
		c0.4-0.4,0.7-0.8,1-1.3c0.4-0.4,0.6-0.8,0.8-1.4c0.1-0.5,0.4-1,0.5-1.6c0-0.5,0.1-1.1,0.1-1.7c0-0.5-0.1-1.1-0.2-1.6
		c-0.1-0.6-0.2-1.1-0.5-1.6c-2.5-5.9-5.3-11.8-8.3-17.4c-0.2-0.6-0.6-1-0.8-1.4c-0.4-0.5-0.8-0.8-1.2-1.2c-0.5-0.4-0.8-0.6-1.3-0.8
		c-0.6-0.4-1.1-0.5-1.6-0.7c-0.6-0.1-1.1-0.2-1.7-0.4c-0.5,0-1.1,0-1.6,0c-0.6,0.1-1.1,0.2-1.7,0.4c-0.5,0.1-1,0.4-1.4,0.6
		c-0.6,0.2-1,0.6-1.4,1s-0.8,0.7-1.2,1.1c-0.4,0.5-0.6,1-0.8,1.4c-0.4,0.5-0.5,1-0.7,1.4c-0.1,0.6-0.2,1.1-0.4,1.7
		c0,0.5,0,1.1,0,1.6c0.1,0.6,0.2,1.2,0.4,1.7c0.1,0.5,0.4,1.1,0.6,1.6C434.8,122.3,437.5,127.7,439.7,133.2z M474.8,222.4
		c0-17.7-1.9-35.1-5.6-52.3c-0.1-0.6-0.2-1.1-0.5-1.7c-0.2-0.5-0.5-1-0.8-1.4c-0.2-0.4-0.6-0.8-1.1-1.2c-0.4-0.4-0.8-0.7-1.3-1.1
		c-0.4-0.2-0.8-0.5-1.4-0.7c-0.5-0.1-1-0.4-1.6-0.5c-0.5,0-1.1-0.1-1.7-0.1c-0.5,0-1.1,0.1-1.6,0.2c-0.6,0.1-1.1,0.2-1.6,0.5
		c-0.6,0.2-1.1,0.5-1.4,0.8c-0.5,0.4-1,0.7-1.3,1.1c-0.4,0.4-0.7,0.8-1,1.3c-0.4,0.4-0.6,1-0.8,1.4c-0.1,0.5-0.2,1.1-0.4,1.6
		c-0.1,0.6-0.1,1.1-0.1,1.7c0,0.5,0,1.1,0.1,1.6c2.2,10.1,3.7,20.3,4.6,30.5c0.8,10.3,1,20.5,0.4,30.9c-0.6,10.3-1.8,20.4-3.8,30.6
		c-1.9,10.1-4.6,19.9-7.8,29.8c-0.2,0.5-0.4,1.1-0.4,1.6c-0.1,0.6-0.1,1.1-0.1,1.7c0.1,0.5,0.1,1.1,0.4,1.6c0.1,0.6,0.2,1.1,0.5,1.6
		c0.2,0.5,0.6,1,1,1.4c0.4,0.5,0.7,0.8,1.1,1.2c0.5,0.4,0.8,0.7,1.3,1c0.5,0.2,1,0.5,1.6,0.7c0.5,0.1,1.1,0.2,1.6,0.4
		c0.6,0,1.1,0,1.7,0c0.5,0,1.1-0.1,1.6-0.2c0.6-0.1,1.1-0.4,1.6-0.6c0.5-0.2,1-0.5,1.4-0.8c0.5-0.4,0.8-0.7,1.2-1.2
		c0.4-0.4,0.7-0.8,1-1.3c0.2-0.5,0.5-1,0.7-1.4c4.2-12.6,7.5-25.6,9.6-38.7C473.8,249,474.8,235.8,474.8,222.4z M230.8,28.9
		c106.7,0,193.6,86.7,193.6,193.5c0,6.5-0.4,13.1-1.1,19.6c-0.6,6.5-1.6,13-2.9,19.3c-1.3,6.5-3,12.7-4.9,19
		c-2,6.2-4.2,12.4-6.8,18.4c-2.5,6-5.4,11.9-8.7,17.7c-3.1,5.6-6.6,11.3-10.3,16.6c-3.7,5.4-7.8,10.6-12,15.5
		c-4.3,5-8.8,9.7-13.6,14.3l-9-14.8c4.2-4.1,8-8.4,11.8-12.9c3.7-4.4,7.2-9.1,10.5-13.9c3.2-4.9,6.2-9.8,9-15
		c2.8-5,5.3-10.3,7.6-15.7c2.2-5.4,4.2-10.8,5.9-16.5c1.7-5.5,3.1-11.2,4.3-16.8c1.1-5.8,1.9-11.5,2.5-17.3c0.6-5.8,0.8-11.7,1-17.4
		c0-97.4-79.3-176.7-176.8-176.7C133.3,45.7,54,125,54,222.4c0,5.8,0.2,11.6,0.8,17.4c0.6,5.8,1.4,11.5,2.6,17.3
		c1.1,5.6,2.5,11.3,4.2,16.8c1.8,5.6,3.7,11,6,16.5c2.2,5.4,4.7,10.7,7.4,15.7c2.8,5.2,5.8,10.1,9,15c3.2,4.8,6.7,9.5,10.5,13.9
		c3.7,4.4,7.7,8.8,11.8,12.9l-9,14.8c-4.7-4.6-9.3-9.2-13.5-14.3c-4.3-4.9-8.3-10.1-12-15.5c-3.7-5.3-7.2-10.9-10.5-16.6
		c-3.1-5.8-6-11.6-8.7-17.7c-2.5-6-4.8-12.1-6.7-18.4c-2-6.2-3.6-12.5-4.9-19c-1.3-6.4-2.3-12.8-3-19.3c-0.6-6.5-1-13.1-1-19.6
		C37.2,115.6,123.9,28.9,230.8,28.9z M395.5,446.1c0.5,1,1,1.9,1.4,2.9c0.5,1,0.8,2,1.1,3c0.4,1.1,0.6,2.2,0.7,3.1
		c0.1,1.1,0.2,2.2,0.2,3.2c0.1,1.1,0,2.2-0.1,3.2c-0.1,1.1-0.2,2.2-0.6,3.2c-0.2,1-0.6,2-1,3c-0.4,1.1-0.8,2-1.3,3
		c-0.6,0.8-1.2,1.8-1.8,2.6c-0.6,0.8-1.3,1.7-2.2,2.4c-0.7,0.8-1.6,1.6-2.4,2.2c-0.8,0.7-1.7,1.3-2.6,1.9c-1,0.5-1.9,1-2.9,1.4
		c-1,0.4-2,0.7-3,1c-1.1,0.4-2.2,0.5-3.2,0.7c-1.1,0.1-2.2,0.1-3.2,0.1h-76.6c1.1-2.6,1.8-5.4,2-8.3c0.2-2.9,0-5.6-0.7-8.5h74.4
		c0.8,0,1.6-0.1,2.3-0.2c0.7-0.2,1.3-0.5,2-0.8c0.6-0.5,1.2-0.8,1.7-1.4c0.6-0.5,1.1-1.1,1.4-1.8c0.4-0.6,0.6-1.3,0.7-2
		c0.2-0.7,0.4-1.4,0.2-2.2c0-0.8-0.1-1.6-0.2-2.3c-0.2-0.7-0.6-1.3-1-2L262,261.9c4.9-3.8,8.9-8.4,12.1-13.8l63,102.8L395.5,446.1z
		 M272.8,445.4c-2.6,0-5.2,0.4-7.6,1.1c-2.5,0.7-4.8,1.8-7,3.1H102.8l26.6-42.8c3.8,2,7.8,4.1,11.8,5.9c4,1.9,8.1,3.7,12.1,5.3
		c4.1,1.7,8.3,3.1,12.5,4.4c4.2,1.4,8.4,2.6,12.6,3.7c4.3,1.1,8.7,2,13,2.9c4.3,0.8,8.6,1.6,13,2c4.4,0.6,8.8,1,13.2,1.3
		c4.3,0.2,8.8,0.4,13.2,0.4c4.3,0,8.8-0.1,13.2-0.4c4.3-0.4,8.8-0.7,13.1-1.3c4.4-0.5,8.8-1.2,13.1-2c4.3-0.8,8.6-1.8,12.9-2.9
		c4.3-1.1,8.5-2.3,12.7-3.6c4.2-1.4,8.3-2.9,12.4-4.6c4.1-1.6,8.2-3.4,12.1-5.2c4-1.9,7.9-4,11.8-6l26.6,42.8h-71.3
		c-2.2-1.3-4.4-2.4-7-3.1C277.9,445.7,275.4,445.4,272.8,445.4z M272.8,483.2c-0.7,0-1.4,0-2-0.1c-0.7-0.1-1.3-0.4-2-0.6
		c-0.6-0.2-1.2-0.6-1.8-1c-0.6-0.5-1.1-0.8-1.6-1.3c-0.5-0.5-1-1.1-1.3-1.7c-0.4-0.5-0.7-1.1-1-1.8c-0.2-0.6-0.5-1.2-0.6-1.9
		c-0.1-0.7-0.2-1.3-0.2-2c0-0.7,0.1-1.4,0.2-2c0.1-0.7,0.4-1.3,0.6-2c0.2-0.6,0.6-1.2,1-1.8c0.4-0.6,0.8-1.1,1.3-1.6
		c0.5-0.5,1-1,1.6-1.3c0.6-0.4,1.2-0.7,1.8-1c0.7-0.2,1.3-0.5,2-0.6c0.6-0.1,1.3-0.2,2-0.2c0.7,0,1.3,0.1,2,0.2
		c0.7,0.1,1.3,0.4,1.9,0.6c0.7,0.2,1.3,0.6,1.9,1c0.5,0.4,1.1,0.8,1.6,1.3c0.5,0.5,1,1,1.3,1.6c0.4,0.6,0.7,1.2,1,1.8
		c0.2,0.7,0.5,1.3,0.6,2c0.1,0.6,0.1,1.3,0.1,2c0,0.7,0,1.3-0.1,2c-0.1,0.7-0.4,1.3-0.6,1.9c-0.2,0.7-0.6,1.3-1,1.8
		c-0.5,0.6-0.8,1.2-1.3,1.7c-0.5,0.5-1.1,0.8-1.6,1.3c-0.6,0.4-1.2,0.6-1.9,1c-0.6,0.2-1.2,0.5-1.9,0.6
		C274.1,483.2,273.5,483.2,272.8,483.2z M230.8,256.1c-1.1,0-2.3,0-3.4-0.1c-1.1-0.1-2.2-0.4-3.2-0.5c-1.1-0.2-2.2-0.5-3.2-0.8
		c-1-0.4-2-0.7-3-1.1c-1.1-0.5-2-1-3-1.4c-1-0.5-1.9-1.1-2.9-1.7c-1-0.6-1.8-1.3-2.6-2c-0.8-0.6-1.7-1.4-2.4-2.2
		c-0.8-0.8-1.6-1.6-2.3-2.4c-0.7-1-1.3-1.8-1.9-2.8c-0.6-0.8-1.2-1.8-1.7-2.8c-0.6-1-1.1-2-1.4-3c-0.5-1-0.8-2-1.1-3.1
		c-0.4-1.1-0.6-2.2-0.8-3.2c-0.2-1.1-0.4-2.2-0.5-3.2c-0.1-1.1-0.1-2.2-0.1-3.2c0-1.1,0-2.3,0.1-3.4c0.1-1.1,0.2-2.2,0.5-3.2
		c0.2-1.1,0.5-2.2,0.8-3.2c0.2-1,0.6-2,1.1-3c0.4-1.1,0.8-2,1.4-3c0.5-1,1.1-1.9,1.7-2.9c0.6-1,1.2-1.8,1.9-2.6
		c0.7-0.8,1.4-1.7,2.3-2.4c0.7-0.8,1.6-1.6,2.4-2.3c0.8-0.7,1.7-1.3,2.6-1.9c1-0.6,1.9-1.2,2.9-1.7c1-0.6,1.9-1.1,3-1.4
		c1-0.5,2-0.8,3-1.1c1.1-0.4,2.2-0.6,3.2-0.8c1.1-0.2,2.2-0.4,3.2-0.5c1.1-0.1,2.3-0.1,3.4-0.1c1.1,0,2.2,0,3.2,0.1
		c1.1,0.1,2.2,0.2,3.2,0.5c1.1,0.2,2.2,0.5,3.2,0.8c1.1,0.2,2,0.6,3.1,1.1c1,0.4,2,0.8,3,1.4c1,0.5,1.9,1.1,2.8,1.7
		c1,0.6,1.8,1.2,2.6,1.9c1,0.7,1.7,1.4,2.5,2.3c0.7,0.7,1.4,1.6,2.2,2.4s1.4,1.7,2,2.6c0.6,1,1.1,1.9,1.7,2.9c0.5,1,1,1.9,1.4,3
		c0.4,1,0.7,2,1.1,3c0.2,1.1,0.6,2.2,0.7,3.2c0.2,1.1,0.5,2.2,0.6,3.2c0,1.1,0.1,2.3,0.1,3.4c0,1.1-0.1,2.2-0.2,3.2
		c0,1.1-0.2,2.2-0.5,3.2c-0.1,1.1-0.5,2.2-0.7,3.2c-0.4,1.1-0.7,2-1.2,3.1c-0.4,1-0.8,2-1.3,3c-0.6,1-1.1,1.9-1.7,2.8
		c-0.7,1-1.3,1.8-2,2.6c-0.7,1-1.4,1.7-2.2,2.5c-0.8,0.7-1.7,1.4-2.5,2.2c-0.8,0.7-1.7,1.4-2.6,2c-0.8,0.6-1.8,1.1-2.8,1.7
		c-1,0.5-2,1-3,1.4c-1.1,0.4-2,0.7-3.1,1.1c-1.1,0.4-2.2,0.6-3.2,0.8c-1.1,0.1-2.2,0.4-3.2,0.5C232.9,256.1,231.8,256.1,230.8,256.1
		z M256,317.1c-0.7,0-1.4-0.1-2-0.2c-0.7-0.1-1.3-0.4-2-0.6c-0.6-0.2-1.2-0.6-1.8-1c-0.6-0.4-1.1-0.8-1.6-1.3c-0.5-0.5-1-1-1.3-1.6
		s-0.7-1.2-1-1.8c-0.2-0.7-0.5-1.3-0.6-2c-0.1-0.6-0.2-1.3-0.2-2c0-0.6,0.1-1.3,0.2-2c0.1-0.6,0.4-1.3,0.6-1.9
		c0.2-0.7,0.6-1.3,1-1.8c0.4-0.6,0.8-1.2,1.3-1.7c0.5-0.5,1-0.8,1.6-1.3c0.6-0.4,1.2-0.6,1.8-1c0.7-0.2,1.3-0.4,2-0.6
		c0.6-0.1,1.3-0.1,2-0.1s1.3,0,2,0.1c0.7,0.2,1.3,0.4,1.9,0.6c0.7,0.4,1.3,0.6,1.8,1c0.6,0.5,1.2,0.8,1.7,1.3
		c0.5,0.5,0.8,1.1,1.3,1.7c0.4,0.5,0.7,1.1,1,1.8c0.2,0.6,0.5,1.3,0.6,1.9c0.1,0.7,0.1,1.4,0.1,2c0,0.7,0,1.4-0.1,2
		c-0.1,0.7-0.4,1.3-0.6,2c-0.4,0.6-0.6,1.2-1,1.8c-0.5,0.6-0.8,1.1-1.3,1.6c-0.5,0.5-1.1,1-1.7,1.3c-0.5,0.4-1.1,0.7-1.8,1
		c-0.6,0.2-1.2,0.5-1.9,0.6C257.3,317,256.7,317.1,256,317.1z M180.2,333.9c0-0.7,0.1-1.3,0.2-2c0.1-0.7,0.4-1.3,0.6-2
		c0.2-0.6,0.6-1.2,1-1.8c0.4-0.5,0.8-1.1,1.3-1.6c0.5-0.5,1.1-1,1.6-1.3c0.6-0.4,1.2-0.7,1.9-1c0.6-0.2,1.2-0.5,1.9-0.6
		c0.7-0.1,1.3-0.2,2-0.2c0.7,0,1.3,0.1,2,0.2c0.7,0.1,1.3,0.4,2,0.6c0.6,0.2,1.2,0.6,1.8,1c0.5,0.4,1.1,0.8,1.6,1.3
		c0.5,0.5,1,1.1,1.3,1.6c0.4,0.6,0.7,1.2,1,1.8c0.2,0.7,0.5,1.3,0.6,2c0.1,0.7,0.2,1.3,0.2,2c0,0.7-0.1,1.3-0.2,2
		c-0.1,0.7-0.4,1.3-0.6,1.9c-0.2,0.7-0.6,1.3-1,1.9c-0.4,0.5-0.8,1.1-1.3,1.6c-0.5,0.5-1.1,1-1.6,1.3c-0.6,0.4-1.2,0.7-1.8,1
		c-0.7,0.2-1.3,0.5-2,0.6c-0.7,0.1-1.3,0.2-2,0.2c-0.7,0-1.3-0.1-2-0.2c-0.7-0.1-1.3-0.4-1.9-0.6c-0.7-0.2-1.3-0.6-1.9-1
		c-0.5-0.4-1.1-0.8-1.6-1.3c-0.5-0.5-1-1.1-1.3-1.6c-0.4-0.6-0.7-1.2-1-1.9c-0.2-0.6-0.5-1.2-0.6-1.9
		C180.3,335.2,180.2,334.6,180.2,333.9z M260.2,359.1c0,1.8,0.1,3.5,0.5,5.2c0.4,1.7,0.8,3.4,1.4,4.9c0.6,1.7,1.4,3.2,2.4,4.7
		c1,1.4,2,2.8,3.2,4.1c-4.7,1.1-9.4,1.9-14.2,2.6c-4.7,0.7-9.5,1.2-14.3,1.4c-4.8,0.2-9.6,0.2-14.4,0.1c-4.7-0.2-9.5-0.6-14.3-1.2
		c-4.7-0.6-9.5-1.4-14.2-2.4c-4.7-1.1-9.3-2.3-13.8-3.7c-4.6-1.4-9.1-3.1-13.6-4.9c-4.3-1.9-8.6-4-13-6.1l10.6-17.1
		c0.4,0.7,0.8,1.4,1.2,2c0.5,0.7,1,1.3,1.4,1.9c0.5,0.7,1,1.3,1.6,1.8c0.5,0.6,1.1,1.2,1.7,1.7c0.6,0.6,1.2,1.1,1.8,1.6
		c0.7,0.5,1.3,1,2,1.3c0.6,0.5,1.3,0.8,2,1.2c0.7,0.4,1.4,0.7,2.2,1c0.7,0.4,1.6,0.6,2.3,0.8c0.7,0.2,1.6,0.4,2.3,0.6
		c0.8,0.1,1.6,0.2,2.4,0.4c0.7,0.1,1.6,0.1,2.4,0.2c0.7,0,1.6,0,2.4-0.1c0.7,0,1.6-0.1,2.3-0.2c0.8-0.1,1.6-0.2,2.4-0.4
		c0.7-0.2,1.6-0.5,2.3-0.7c0.7-0.2,1.4-0.5,2.3-0.8c0.7-0.2,1.4-0.6,2.2-1c0.6-0.4,1.3-0.8,2-1.2c0.6-0.5,1.3-1,1.9-1.4
		c0.6-0.5,1.2-1,1.8-1.6c0.6-0.5,1.1-1.1,1.7-1.7c0.5-0.6,1-1.2,1.4-1.8c0.5-0.7,1-1.3,1.4-2c0.4-0.7,0.7-1.3,1.1-2
		c0.4-0.7,0.7-1.4,1-2.2c0.4-0.8,0.6-1.6,0.8-2.3c0.2-0.7,0.5-1.6,0.6-2.3c0.1-0.8,0.2-1.6,0.4-2.4c0.1-0.8,0.1-1.6,0.2-2.4
		c0-0.7,0-1.6-0.1-2.4c0-0.7-0.1-1.6-0.2-2.3c-0.1-0.8-0.2-1.7-0.4-2.4c-0.2-0.7-0.5-1.6-0.7-2.3c-0.2-0.7-0.5-1.6-0.8-2.3
		c-0.2-0.7-0.6-1.4-1-2.2s-0.8-1.3-1.2-2c-0.5-0.6-1-1.3-1.4-1.9c-0.5-0.6-1.1-1.2-1.6-1.8c-0.6-0.6-1.1-1.1-1.7-1.7
		c-0.6-0.5-1.2-1-1.9-1.4c-0.6-0.5-1.2-1-1.9-1.4c-0.7-0.4-1.4-0.7-2-1.1c-0.7-0.4-1.4-0.7-2.3-1c-0.7-0.4-1.4-0.6-2.2-0.8
		c-0.8-0.2-1.6-0.5-2.4-0.6c-0.7-0.1-1.6-0.2-2.3-0.4c-0.8-0.1-1.6-0.1-2.4-0.2l22.6-36.4c2.6,1,5.4,1.6,8.2,2
		c2.8,0.5,5.5,0.7,8.4,0.7c2.8,0,5.5-0.2,8.3-0.7c2.8-0.5,5.5-1.1,8.2-2l5.8,9.2c-0.6,0.1-1.1,0.1-1.7,0.2c-0.6,0.1-1.2,0.2-1.7,0.4
		c-0.6,0.1-1.2,0.2-1.7,0.5c-0.6,0.1-1.1,0.4-1.7,0.5c-0.5,0.2-1.1,0.5-1.6,0.7c-0.5,0.2-1.1,0.5-1.6,0.7c-0.5,0.2-1,0.6-1.4,0.8
		c-0.5,0.4-1,0.6-1.4,1c-0.5,0.4-1,0.7-1.4,1.1c-0.4,0.4-0.8,0.7-1.3,1.1c-0.4,0.4-0.8,0.8-1.2,1.2c-0.4,0.4-0.7,0.8-1.2,1.3
		c-0.4,0.4-0.7,0.8-1.1,1.3c-0.2,0.5-0.6,1-1,1.4c-0.2,0.5-0.6,1-0.8,1.4c-0.4,0.5-0.6,1-0.8,1.6c-0.2,0.5-0.5,1-0.7,1.6
		c-0.2,0.5-0.4,1.1-0.6,1.6c-0.1,0.6-0.4,1.1-0.5,1.7c-0.1,0.5-0.2,1.1-0.4,1.7c-0.1,0.6-0.2,1.1-0.4,1.7c0,0.6-0.1,1.1-0.1,1.7
		c-0.1,0.6-0.1,1.2-0.1,1.8c0,0.5,0,1.1,0,1.7c0.1,0.6,0.1,1.1,0.2,1.7c0,0.6,0.1,1.2,0.2,1.7c0,0.6,0.1,1.2,0.4,1.7
		c0.1,0.6,0.2,1.2,0.4,1.7c0.2,0.6,0.4,1.1,0.6,1.7c0.2,0.5,0.5,1.1,0.7,1.6c0.2,0.5,0.5,1.1,0.7,1.6c0.2,0.5,0.6,1,0.8,1.4
		c0.4,0.5,0.6,1,1,1.4c0.4,0.5,0.7,1,1.1,1.4c0.4,0.4,0.7,0.8,1.1,1.3c0.5,0.4,0.8,0.8,1.2,1.2c0.5,0.4,0.8,0.7,1.3,1.1
		c0.5,0.5,0.8,0.8,1.3,1.1c0.5,0.4,1,0.7,1.4,1.1c0.5,0.2,1,0.6,1.4,0.8c0.6,0.2,1.1,0.5,1.6,0.8c0.5,0.2,1.1,0.5,1.6,0.6
		c0.6,0.2,1.1,0.5,1.7,0.6c0.5,0.2,1.1,0.4,1.6,0.5c0.6,0.2,1.2,0.4,1.7,0.5c0.6,0.1,1.2,0.1,1.8,0.2c0.5,0.1,1.1,0.1,1.7,0.1
		c0.6,0.1,1.1,0.1,1.7,0.1c0.6,0,1.2,0,1.8,0c0.5-0.1,1.1-0.1,1.7-0.2c0.6,0,1.1-0.1,1.7-0.2c0.6-0.1,1.1-0.2,1.7-0.4
		c0.6-0.1,1.1-0.2,1.7-0.5c0.5-0.1,1.1-0.4,1.6-0.6c0.6-0.1,1.1-0.4,1.7-0.6c0.5-0.2,1-0.5,1.4-0.8c0.6-0.2,1.1-0.5,1.6-0.8
		c0.5-0.2,1-0.6,1.4-1c0.5-0.4,0.8-0.7,1.3-1.1c0.5-0.4,0.8-0.7,1.3-1.1c0.4-0.4,0.8-0.8,1.2-1.2c0.4-0.5,0.8-0.8,1.2-1.3
		c0.4-0.5,0.7-0.8,1-1.3c0.4-0.5,0.7-1,1-1.4l6.6,10.6c-0.8,0.1-1.7,0.1-2.5,0.4c-0.8,0.1-1.7,0.2-2.5,0.5c-0.8,0.2-1.6,0.5-2.4,0.8
		c-0.8,0.2-1.6,0.6-2.4,1c-0.7,0.4-1.4,0.7-2.2,1.2c-0.8,0.5-1.4,1-2.2,1.4s-1.3,1-2,1.6c-0.6,0.6-1.2,1.2-1.8,1.8
		c-0.6,0.6-1.1,1.3-1.7,1.9c-0.5,0.7-1,1.4-1.4,2.2c-0.5,0.7-0.8,1.4-1.3,2.2c-0.4,0.8-0.7,1.6-1,2.4c-0.4,0.7-0.6,1.6-0.8,2.4
		c-0.2,0.8-0.5,1.7-0.6,2.5c-0.1,0.8-0.2,1.7-0.4,2.5C260.2,357.4,260.2,358.3,260.2,359.1z M314.3,378.1l8.9,14.3
		c-3.5,1.9-7.1,3.7-10.7,5.5c-3.7,1.7-7.3,3.2-11.2,4.7c-3.7,1.4-7.5,2.8-11.3,4.1c-3.8,1.2-7.7,2.3-11.5,3.2
		c-4,1.1-7.8,1.9-11.8,2.6c-4,0.7-7.9,1.3-11.9,1.9c-4,0.5-8.1,0.8-12,1.1c-4,0.2-8,0.4-12,0.4c-4.1,0-8-0.1-12-0.4
		c-4.1-0.2-8.1-0.6-12-1.1c-4-0.6-8.1-1.2-11.9-1.9c-4-0.7-7.9-1.6-11.8-2.6c-4-1-7.8-2-11.7-3.2c-3.7-1.3-7.6-2.6-11.3-4.1
		c-3.7-1.4-7.5-3-11.1-4.7c-3.7-1.8-7.2-3.6-10.8-5.5l8.9-14.3c3.2,1.7,6.5,3.4,9.7,4.8c3.4,1.6,6.7,3,10.1,4.3
		c3.4,1.3,6.7,2.5,10.2,3.6c3.5,1.1,7,2,10.5,2.9c3.5,1,7.1,1.7,10.7,2.4c3.5,0.6,7.1,1.2,10.7,1.7c3.6,0.4,7.2,0.7,10.8,1
		c3.6,0.2,7.3,0.4,10.9,0.4c3.6,0,7.2-0.1,10.8-0.4c3.6-0.2,7.2-0.6,10.8-1c3.6-0.5,7.2-1.1,10.8-1.7c3.6-0.7,7.1-1.4,10.6-2.3
		c3.6-1,7.1-1.9,10.5-3c3.5-1.1,7-2.3,10.3-3.6c3.4-1.3,6.7-2.8,10-4.2C307.9,381.5,311.2,379.9,314.3,378.1z M287.5,369.7
		c-0.6,0-1.3-0.1-2-0.2c-0.6-0.1-1.3-0.4-1.9-0.6c-0.6-0.2-1.2-0.6-1.8-1s-1.1-0.8-1.6-1.3c-0.5-0.5-1-1-1.3-1.6
		c-0.5-0.6-0.7-1.2-1-1.8c-0.4-0.7-0.5-1.3-0.6-2c-0.2-0.6-0.2-1.3-0.2-2c0-0.7,0-1.3,0.2-2c0.1-0.7,0.2-1.3,0.6-1.9
		c0.2-0.7,0.5-1.3,1-1.9c0.4-0.5,0.8-1.1,1.3-1.6c0.5-0.5,1-0.8,1.6-1.3c0.6-0.4,1.2-0.7,1.8-1c0.6-0.2,1.3-0.5,1.9-0.6
		c0.7-0.1,1.4-0.1,2-0.1c0.7,0,1.4,0,2.2,0.1c0.6,0.1,1.3,0.4,1.9,0.6c0.6,0.2,1.2,0.6,1.8,1c0.6,0.5,1.1,0.8,1.6,1.3
		c0.5,0.5,1,1.1,1.3,1.6c0.4,0.6,0.7,1.2,1,1.9c0.4,0.6,0.5,1.2,0.6,1.9c0.1,0.7,0.2,1.3,0.2,2c0,0.7-0.1,1.4-0.2,2
		c-0.1,0.7-0.2,1.3-0.6,2c-0.2,0.6-0.6,1.2-1,1.8c-0.4,0.6-0.8,1.1-1.3,1.6c-0.5,0.5-1,1-1.6,1.3c-0.6,0.4-1.2,0.7-1.8,1
		c-0.6,0.2-1.3,0.5-1.9,0.6C288.9,369.6,288.2,369.7,287.5,369.7z M321.3,281.3c0-0.7,0-1.3,0.1-2c0.1-0.7,0.4-1.3,0.6-1.9
		c0.2-0.7,0.6-1.3,1-1.9c0.5-0.5,0.8-1.1,1.3-1.6c0.5-0.5,1.1-0.8,1.7-1.3c0.5-0.4,1.1-0.7,1.8-1c0.6-0.2,1.2-0.5,1.9-0.6
		c0.7-0.1,1.3-0.1,2-0.1c0.7,0,1.4,0,2,0.1c0.7,0.1,1.3,0.4,2,0.6c0.6,0.2,1.2,0.6,1.8,1c0.6,0.5,1.1,0.8,1.6,1.3s1,1.1,1.3,1.6
		c0.4,0.6,0.7,1.2,1,1.9c0.2,0.6,0.5,1.2,0.6,1.9c0.1,0.7,0.2,1.3,0.2,2c0,0.7-0.1,1.4-0.2,2c-0.1,0.7-0.4,1.3-0.6,2
		c-0.2,0.6-0.6,1.2-1,1.8c-0.4,0.6-0.8,1.1-1.3,1.6c-0.5,0.5-1,1-1.6,1.3c-0.6,0.4-1.2,0.7-1.8,1c-0.7,0.2-1.3,0.5-2,0.6
		c-0.6,0.1-1.3,0.2-2,0.2c-0.7,0-1.3-0.1-2-0.2c-0.7-0.1-1.3-0.4-1.9-0.6c-0.7-0.2-1.3-0.6-1.8-1c-0.6-0.4-1.2-0.8-1.7-1.3
		c-0.5-0.5-0.8-1-1.3-1.6c-0.4-0.6-0.6-1.2-1-1.8c-0.2-0.7-0.5-1.3-0.6-2C321.3,282.7,321.3,282,321.3,281.3z M331.7,308.7
		c0.8,0,1.7,0,2.4-0.1c0.8-0.1,1.7-0.2,2.4-0.4c0.8-0.1,1.7-0.2,2.4-0.5c0.8-0.2,1.6-0.5,2.3-0.7c0.8-0.4,1.6-0.6,2.3-1
		c0.7-0.4,1.4-0.7,2.2-1.2c0.7-0.4,1.3-0.8,2-1.3c0.6-0.5,1.3-1,1.9-1.4c0.6-0.6,1.2-1.1,1.8-1.7c0.5-0.6,1.1-1.2,1.6-1.8
		c0.5-0.7,1-1.3,1.4-2c0.5-0.6,0.8-1.3,1.3-2c0.4-0.7,0.7-1.4,1.1-2.2c0.2-0.7,0.6-1.6,0.8-2.3c0.2-0.7,0.5-1.6,0.6-2.4
		c0.2-0.7,0.4-1.6,0.5-2.3c0.1-0.8,0.2-1.7,0.2-2.5c0.1-0.7,0.1-1.6,0.1-2.4s-0.1-1.6-0.2-2.4c-0.1-0.8-0.2-1.6-0.4-2.4
		c-0.2-0.8-0.4-1.6-0.6-2.4c-0.2-0.7-0.5-1.4-0.8-2.3c-0.4-0.7-0.6-1.4-1-2.2c-0.5-0.7-0.8-1.4-1.2-2.2c-0.5-0.6-1-1.3-1.4-1.9
		c-0.5-0.7-1.1-1.3-1.6-1.9c-0.6-0.6-1.1-1.2-1.7-1.7c-0.6-0.6-1.3-1.1-1.9-1.6c-0.6-0.5-1.3-1-2-1.4c-0.6-0.4-1.3-0.7-2-1.2
		c-0.7-0.4-1.4-0.6-2.3-1c-0.7-0.4-1.4-0.6-2.3-0.8c-0.7-0.2-1.6-0.4-2.3-0.6c-0.8-0.1-1.7-0.2-2.4-0.4c-0.8-0.1-1.7-0.1-2.4-0.1
		c-0.8-0.1-1.7-0.1-2.5,0c-0.7,0-1.6,0.1-2.4,0.2c-0.8,0.1-1.6,0.2-2.4,0.5c-0.7,0.2-1.6,0.4-2.3,0.7c-0.8,0.2-1.6,0.5-2.3,0.8
		c-0.7,0.4-1.4,0.7-2.2,1.1c-0.7,0.4-1.4,0.8-2,1.3c-0.7,0.4-1.3,0.8-2,1.4c-0.6,0.5-1.2,1-1.8,1.6c-0.6,0.6-1.1,1.2-1.7,1.8
		c-0.5,0.6-1,1.2-1.4,1.9c-0.5,0.6-1,1.3-1.3,2c-0.5,0.7-0.8,1.4-1.2,2.2l-25.1-41.1c-0.2-0.5-0.6-0.8-0.8-1.2
		c0.1-1.6,0.2-3.2,0.2-4.9c0-1.7-0.1-3.4-0.2-4.9c-0.1-1.7-0.4-3.4-0.7-4.9c-0.4-1.7-0.7-3.2-1.2-4.8c-0.5-1.6-1.1-3.1-1.7-4.7
		s-1.3-3-2.2-4.4c-0.7-1.4-1.6-2.9-2.5-4.3c-1-1.3-1.9-2.6-2.9-4c-1.1-1.3-2.2-2.5-3.4-3.6c-1.2-1.2-2.4-2.3-3.7-3.4
		c-1.2-1.1-2.5-2-4-3c-1.3-0.8-2.8-1.7-4.2-2.5c-1.4-0.7-3-1.4-4.6-2.2c-1.4-0.6-3-1.1-4.6-1.6c-1.7-0.5-3.2-1-4.8-1.2
		c-1.7-0.4-3.2-0.6-4.9-0.8c-1.7-0.1-3.4-0.2-4.9-0.2c-1.7,0-3.4,0.1-5,0.2c-1.6,0.2-3.2,0.5-4.8,0.8c-1.7,0.2-3.2,0.7-4.8,1.2
		c-1.6,0.5-3.1,1-4.7,1.6c-1.6,0.7-3,1.4-4.4,2.2c-1.6,0.8-2.9,1.7-4.3,2.5c-1.3,1-2.6,1.9-4,3c-1.3,1.1-2.5,2.2-3.6,3.4
		c-1.2,1.1-2.3,2.3-3.4,3.6c-1.1,1.3-2,2.6-3,4c-0.8,1.4-1.7,2.9-2.5,4.3c-0.7,1.4-1.4,2.9-2.2,4.4c-0.6,1.6-1.1,3.1-1.6,4.7
		c-0.5,1.6-1,3.1-1.2,4.8c-0.4,1.6-0.6,3.2-0.8,4.9c-0.1,1.6-0.2,3.2-0.2,4.9c0,1.6,0.1,3.1,0.2,4.8l-64.9,105.9
		c-3.6-3.6-7-7.4-10.1-11.5c-3.1-4-6.1-8.2-8.9-12.4c-2.8-4.3-5.4-8.8-7.7-13.2c-2.4-4.6-4.4-9.2-6.4-13.9c-1.9-4.8-3.6-9.6-5-14.4
		c-1.4-4.9-2.6-9.8-3.6-14.9c-1.1-5-1.8-10.1-2.3-15.1c-0.5-5-0.7-10.2-0.7-15.2c0-88.2,71.7-159.9,159.9-159.9
		c88.1,0,159.8,71.7,159.8,159.9c0,5-0.2,10.2-0.7,15.2c-0.5,5-1.2,10.1-2.2,15.1c-1,5-2.2,10-3.6,14.9c-1.4,4.8-3.1,9.6-5,14.4
		c-1.9,4.7-4.1,9.4-6.4,13.9c-2.4,4.4-4.9,8.9-7.7,13.2c-2.8,4.2-5.8,8.4-8.9,12.4c-3.2,4.1-6.6,7.9-10.1,11.5l-15-24.5
		C331.2,308.7,331.5,308.7,331.7,308.7z M86.8,483.2c-1.1,0-2.2,0-3.2-0.1c-1.1-0.2-2-0.4-3.1-0.7c-1.1-0.2-2-0.6-3.1-1
		c-1-0.5-1.9-1-2.9-1.4c-0.8-0.6-1.8-1.2-2.6-1.9c-0.8-0.6-1.7-1.3-2.4-2.2c-0.7-0.7-1.4-1.6-2-2.4c-0.7-0.8-1.3-1.8-1.8-2.6
		c-0.6-1-1-1.9-1.4-3c-0.4-1-0.7-2-1-3c-0.2-1.1-0.5-2.2-0.6-3.2c-0.1-1.1-0.1-2.2-0.1-3.2c0-1.1,0.1-2.2,0.2-3.2
		c0.2-1,0.5-2,0.7-3.1c0.4-1,0.7-2,1.1-3c0.5-1,1-1.9,1.6-2.9l121.4-197.9c3.1,5.4,7.2,10,12,13.8L80.5,453.5c-0.5,0.7-0.7,1.3-1,2
		c-0.2,0.7-0.4,1.4-0.4,2.3c0,0.7,0.1,1.4,0.2,2.2c0.2,0.7,0.5,1.4,0.8,2c0.4,0.7,0.8,1.3,1.3,1.8c0.5,0.6,1.1,1,1.8,1.4
		c0.6,0.4,1.3,0.6,2,0.8c0.7,0.1,1.4,0.2,2.2,0.2h158.5c-0.6,2.9-0.8,5.6-0.6,8.5c0.2,2.9,1,5.6,2,8.3H86.8z M88.4,377.4l-36.8,59.9
		c-0.8,1.6-1.8,3.1-2.5,4.8c-0.7,1.7-1.3,3.4-1.8,5.2c-0.6,1.7-1,3.5-1.2,5.3c-0.2,1.8-0.5,3.6-0.5,5.4c0,1.9,0,3.7,0.2,5.5
		s0.5,3.6,1,5.4c0.5,1.7,1,3.5,1.7,5.2c0.7,1.7,1.4,3.4,2.4,4.9c0.8,1.6,1.8,3.1,2.9,4.6c1.2,1.4,2.3,2.9,3.6,4.2
		c1.3,1.2,2.6,2.5,4.1,3.6c1.4,1.1,2.9,2.2,4.6,3c1.6,1,3.1,1.8,4.8,2.5c1.7,0.7,3.5,1.3,5.2,1.8c1.8,0.4,3.6,0.7,5.4,1
		c1.8,0.2,3.6,0.4,5.4,0.4h287.8c1.9,0,3.7-0.1,5.5-0.4c1.8-0.2,3.6-0.6,5.3-1c1.8-0.5,3.5-1.1,5.2-1.8c1.7-0.7,3.4-1.6,4.9-2.5
		c1.6-0.8,3.1-1.9,4.6-3c1.3-1.2,2.8-2.4,4-3.6c1.3-1.3,2.5-2.8,3.6-4.2c1.1-1.4,2-3,3-4.6c0.8-1.6,1.7-3.2,2.3-4.9
		c0.7-1.7,1.3-3.5,1.7-5.2c0.5-1.8,0.8-3.6,1-5.4c0.2-1.8,0.4-3.6,0.2-5.5c0-1.8-0.1-3.6-0.4-5.4c-0.4-1.8-0.7-3.6-1.2-5.3
		c-0.6-1.8-1.2-3.5-1.9-5.2c-0.7-1.7-1.6-3.2-2.5-4.8L373,377.4c5.4-4.9,10.5-10.1,15.3-15.6c4.8-5.4,9.4-11,13.6-16.9
		s8.2-12,11.7-18.4c3.6-6.2,7-12.7,9.9-19.5c2.9-6.6,5.5-13.4,7.7-20.3c2.3-7,4.1-13.9,5.5-21c1.6-7.1,2.6-14.3,3.4-21.5
		c0.8-7.2,1.2-14.5,1.2-21.7c0-116-94.5-210.4-210.4-210.4C114.7,12,20.3,106.4,20.3,222.4c0,7.2,0.4,14.5,1.1,21.7
		c0.7,7.2,1.9,14.4,3.4,21.5c1.4,7.1,3.4,14.1,5.5,21c2.3,6.8,4.8,13.7,7.8,20.3c2.9,6.7,6.1,13.2,9.7,19.5
		c3.6,6.4,7.5,12.5,11.8,18.4c4.2,5.9,8.6,11.5,13.5,16.9C78,367.3,83.1,372.5,88.4,377.4z"/>
	<linearGradient id="SVGID_2_" gradientUnits="userSpaceOnUse" x1="100.255" y1="298.0975" x2="491.6575" y2="298.0975">
		<stop  offset="0" style="stop-color:#392D69"/>
		<stop  offset="0.4383" style="stop-color:#775CA4"/>
		<stop  offset="1" style="stop-color:#392D69"/>
	</linearGradient>
	<path class="st1" d="M314.9,224.5c-0.7,0-1.3,0-2-0.1c-0.7-0.2-1.3-0.4-1.9-0.6c-0.7-0.4-1.3-0.6-1.9-1c-0.5-0.5-1.1-0.8-1.6-1.3
		c-0.5-0.5-1-1.1-1.3-1.7c-0.4-0.5-0.7-1.1-1-1.8c-0.2-0.6-0.5-1.3-0.6-1.9c-0.1-0.7-0.1-1.4-0.1-2c0-0.7,0-1.4,0.1-2
		c0.1-0.7,0.4-1.3,0.6-2c0.2-0.6,0.6-1.2,1-1.8c0.4-0.6,0.8-1.1,1.3-1.6c0.5-0.5,1.1-1,1.6-1.3c0.6-0.4,1.2-0.7,1.9-1
		c0.6-0.2,1.2-0.5,1.9-0.6c0.7-0.1,1.3-0.2,2-0.2s1.4,0.1,2,0.2c0.7,0.1,1.3,0.4,2,0.6c0.6,0.2,1.2,0.6,1.8,1
		c0.6,0.4,1.1,0.8,1.6,1.3c0.5,0.5,1,1,1.3,1.6c0.4,0.6,0.7,1.2,1,1.8c0.2,0.7,0.5,1.3,0.6,2c0.1,0.6,0.2,1.3,0.2,2
		c0,0.6-0.1,1.3-0.2,2c-0.1,0.6-0.4,1.3-0.6,1.9c-0.2,0.7-0.6,1.3-1,1.8c-0.4,0.6-0.8,1.2-1.3,1.7c-0.5,0.5-1.1,0.8-1.6,1.3
		c-0.6,0.4-1.2,0.6-1.8,1c-0.7,0.2-1.3,0.4-2,0.6C316.3,224.5,315.6,224.5,314.9,224.5z M314.9,186.6c-0.8,0-1.8,0-2.6,0.1
		c-1,0.1-1.8,0.2-2.6,0.4c-1,0.2-1.8,0.5-2.6,0.7c-0.8,0.2-1.7,0.6-2.5,0.8c-0.8,0.4-1.7,0.7-2.4,1.2c-0.8,0.4-1.6,0.8-2.3,1.3
		c-0.8,0.6-1.6,1.1-2.2,1.7c-0.7,0.5-1.4,1.1-2,1.8c-0.6,0.6-1.2,1.3-1.8,1.9c-0.6,0.7-1.1,1.4-1.6,2.2c-0.5,0.7-1,1.6-1.4,2.3
		c-0.4,0.8-0.7,1.7-1.1,2.5c-0.4,0.7-0.7,1.7-1,2.5c-0.2,0.8-0.5,1.7-0.6,2.5c-0.2,1-0.4,1.8-0.4,2.6c-0.1,1-0.2,1.8-0.2,2.8
		c0,0.8,0.1,1.8,0.2,2.6c0,0.8,0.1,1.8,0.4,2.6c0.1,0.8,0.4,1.8,0.6,2.6c0.2,0.8,0.6,1.7,1,2.5c0.4,0.8,0.7,1.6,1.1,2.4
		c0.5,0.8,1,1.6,1.4,2.3c0.5,0.7,1,1.4,1.6,2.2c0.6,0.7,1.2,1.3,1.8,2c0.6,0.6,1.3,1.2,2,1.8c0.6,0.5,1.3,1.1,2.2,1.6
		c0.7,0.5,1.4,1,2.3,1.4c0.7,0.4,1.6,0.7,2.4,1.1c0.8,0.4,1.7,0.6,2.5,1c0.8,0.2,1.7,0.5,2.6,0.6c0.8,0.1,1.7,0.4,2.6,0.4
		c0.8,0.1,1.8,0.1,2.6,0.1c1,0,1.8,0,2.6-0.1c1,0,1.8-0.2,2.8-0.4c0.8-0.1,1.7-0.4,2.5-0.6c0.8-0.4,1.7-0.6,2.5-1
		c0.8-0.4,1.7-0.7,2.4-1.1c0.8-0.5,1.6-1,2.4-1.4c0.7-0.5,1.4-1.1,2.2-1.6c0.6-0.6,1.3-1.2,1.9-1.8c0.6-0.7,1.2-1.3,1.8-2
		c0.6-0.7,1.1-1.4,1.6-2.2c0.6-0.7,1-1.4,1.4-2.3c0.4-0.8,0.8-1.6,1.1-2.4c0.4-0.8,0.7-1.7,1-2.5c0.2-0.8,0.5-1.8,0.6-2.6
		c0.2-0.8,0.4-1.8,0.5-2.6c0-0.8,0.1-1.8,0.1-2.6c0-1-0.1-1.8-0.1-2.8c-0.1-0.8-0.2-1.7-0.5-2.6c-0.1-0.8-0.4-1.7-0.6-2.5
		c-0.2-0.8-0.6-1.7-1-2.5s-0.7-1.7-1.1-2.5c-0.5-0.7-1-1.6-1.4-2.3c-0.5-0.7-1-1.4-1.6-2.2c-0.6-0.6-1.2-1.3-1.8-1.9
		c-0.6-0.6-1.3-1.2-2-1.8c-0.6-0.6-1.3-1.1-2.2-1.6c-0.7-0.6-1.4-1-2.3-1.4c-0.7-0.5-1.6-0.8-2.4-1.2c-0.8-0.2-1.7-0.6-2.5-0.8
		s-1.7-0.5-2.6-0.7c-0.8-0.1-1.7-0.2-2.6-0.4C316.7,186.6,315.8,186.6,314.9,186.6z M432.8,399.1c-0.7,0-1.4-0.1-2-0.2
		c-0.7-0.1-1.4-0.4-2-0.6s-1.2-0.6-1.8-1c-0.6-0.4-1.1-0.8-1.6-1.3c-0.5-0.5-1-1-1.3-1.6c-0.4-0.6-0.7-1.2-1-1.8
		c-0.2-0.6-0.5-1.3-0.6-2c-0.1-0.6-0.2-1.3-0.2-2c0-0.6,0.1-1.3,0.2-2c0.1-0.6,0.4-1.3,0.6-1.9c0.2-0.7,0.6-1.3,1-1.8
		c0.4-0.6,0.8-1.2,1.3-1.7c0.5-0.5,1-0.8,1.6-1.2c0.6-0.5,1.2-0.7,1.8-1.1c0.6-0.2,1.3-0.4,2-0.6c0.6-0.1,1.3-0.1,2-0.1
		c0.6,0,1.3,0,2,0.1c0.6,0.2,1.3,0.4,1.9,0.6c0.6,0.4,1.2,0.6,1.8,1.1c0.6,0.4,1.1,0.7,1.7,1.2c0.5,0.5,0.8,1.1,1.2,1.7
		c0.5,0.5,0.7,1.1,1.1,1.8c0.2,0.6,0.4,1.3,0.5,1.9c0.2,0.7,0.2,1.4,0.2,2c0,0.7,0,1.4-0.2,2c-0.1,0.7-0.2,1.3-0.6,2
		c-0.2,0.6-0.5,1.2-1,1.8c-0.4,0.6-0.7,1.1-1.2,1.6c-0.6,0.5-1.1,1-1.7,1.3c-0.6,0.4-1.2,0.7-1.8,1c-0.6,0.2-1.3,0.5-1.9,0.6
		C434.1,399,433.4,399.1,432.8,399.1z M432.8,361.3c-1,0-1.8,0-2.8,0.1c-0.8,0-1.7,0.2-2.6,0.4c-0.8,0.1-1.7,0.4-2.5,0.6
		c-1,0.4-1.8,0.6-2.5,1c-0.8,0.4-1.7,0.7-2.5,1.2c-0.7,0.4-1.6,0.8-2.3,1.3c-0.7,0.5-1.4,1.1-2.2,1.6c-0.7,0.6-1.3,1.2-1.9,1.8
		c-0.7,0.7-1.3,1.3-1.8,2c-0.6,0.7-1.1,1.4-1.7,2.2c-0.5,0.7-1,1.4-1.3,2.3c-0.5,0.8-0.8,1.6-1.2,2.4c-0.4,0.8-0.6,1.7-0.8,2.5
		s-0.5,1.8-0.7,2.6c-0.1,0.8-0.2,1.8-0.4,2.6c-0.1,0.8-0.1,1.8-0.1,2.6c0,1,0,1.8,0.1,2.8c0.1,0.8,0.2,1.7,0.4,2.6
		c0.2,0.8,0.5,1.7,0.7,2.5c0.2,1,0.5,1.8,0.8,2.5c0.4,0.8,0.7,1.7,1.2,2.5c0.4,0.7,0.8,1.6,1.3,2.3c0.6,0.7,1.1,1.4,1.7,2.2
		c0.5,0.7,1.1,1.3,1.8,1.9c0.6,0.7,1.2,1.3,1.9,1.8c0.7,0.6,1.4,1.1,2.2,1.7c0.7,0.5,1.6,1,2.3,1.3c0.8,0.5,1.7,0.8,2.5,1.2
		c0.7,0.4,1.6,0.6,2.5,0.8c0.8,0.2,1.7,0.5,2.5,0.7c1,0.1,1.8,0.2,2.6,0.4c1,0.1,1.8,0.1,2.8,0.1c0.8,0,1.8,0,2.6-0.1
		s1.8-0.2,2.6-0.4c0.8-0.2,1.8-0.5,2.6-0.7s1.7-0.5,2.5-0.8c0.8-0.4,1.6-0.7,2.4-1.2c0.8-0.4,1.6-0.8,2.3-1.3
		c0.7-0.6,1.4-1.1,2.2-1.7c0.7-0.5,1.3-1.1,2-1.8c0.6-0.6,1.2-1.2,1.8-1.9c0.5-0.7,1.1-1.4,1.6-2.2c0.5-0.7,1-1.6,1.3-2.3
		c0.5-0.8,0.8-1.7,1.2-2.5c0.4-0.7,0.6-1.6,0.8-2.5c0.4-0.8,0.5-1.7,0.7-2.5c0.1-1,0.2-1.8,0.4-2.6c0.1-1,0.1-1.8,0.1-2.8
		c0-0.8,0-1.8-0.1-2.6c-0.1-0.8-0.2-1.8-0.4-2.6c-0.2-0.8-0.4-1.8-0.7-2.6c-0.2-0.8-0.5-1.7-0.8-2.5c-0.4-0.8-0.7-1.6-1.2-2.4
		c-0.4-0.8-0.8-1.6-1.3-2.3c-0.5-0.7-1.1-1.4-1.6-2.2c-0.6-0.7-1.2-1.3-1.8-2c-0.7-0.6-1.3-1.2-2-1.8c-0.7-0.5-1.4-1.1-2.2-1.6
		c-0.7-0.5-1.6-1-2.3-1.3c-0.8-0.5-1.6-0.8-2.4-1.2c-0.8-0.4-1.7-0.6-2.5-1c-0.8-0.2-1.8-0.4-2.6-0.6c-0.8-0.1-1.8-0.4-2.6-0.4
		C434.6,361.3,433.6,361.3,432.8,361.3z M464.3,483.2c-0.6,0-1.3,0-2-0.1c-0.6-0.1-1.3-0.4-1.9-0.6c-0.7-0.2-1.3-0.6-1.8-1
		c-0.6-0.5-1.2-0.8-1.7-1.3s-0.8-1.1-1.3-1.7c-0.4-0.5-0.6-1.1-1-1.8c-0.2-0.6-0.4-1.2-0.6-1.9c-0.1-0.7-0.1-1.3-0.1-2
		c0-0.7,0-1.4,0.1-2c0.2-0.7,0.4-1.3,0.6-2c0.4-0.6,0.6-1.2,1-1.8c0.5-0.6,0.8-1.1,1.3-1.6c0.5-0.5,1.1-1,1.7-1.3
		c0.5-0.4,1.1-0.7,1.8-1c0.6-0.2,1.3-0.5,1.9-0.6c0.7-0.1,1.4-0.2,2-0.2c0.7,0,1.4,0.1,2,0.2c0.7,0.1,1.3,0.4,2,0.6
		c0.6,0.2,1.2,0.6,1.8,1c0.6,0.4,1.1,0.8,1.6,1.3c0.5,0.5,1,1,1.3,1.6c0.4,0.6,0.7,1.2,1,1.8c0.2,0.7,0.5,1.3,0.6,2
		c0.1,0.6,0.2,1.3,0.2,2c0,0.7-0.1,1.3-0.2,2c-0.1,0.7-0.4,1.3-0.6,1.9c-0.2,0.7-0.6,1.3-1,1.8c-0.4,0.6-0.8,1.2-1.3,1.7
		s-1,0.8-1.6,1.3c-0.6,0.4-1.2,0.6-1.8,1c-0.7,0.2-1.3,0.5-2,0.6C465.7,483.2,465,483.2,464.3,483.2z M464.3,445.4
		c-0.8,0-1.8,0.1-2.6,0.1c-0.8,0.1-1.8,0.2-2.6,0.5c-0.8,0.1-1.8,0.4-2.6,0.6c-0.8,0.2-1.7,0.6-2.5,0.8c-0.8,0.4-1.6,0.8-2.4,1.2
		c-0.8,0.5-1.6,0.8-2.3,1.4c-0.7,0.5-1.4,1-2.2,1.6c-0.7,0.6-1.3,1.2-2,1.8c-0.6,0.6-1.2,1.3-1.8,1.9c-0.5,0.7-1.1,1.4-1.6,2.2
		c-0.5,0.8-1,1.6-1.3,2.4c-0.5,0.7-0.8,1.6-1.2,2.4c-0.4,0.8-0.6,1.7-1,2.5c-0.2,0.8-0.5,1.7-0.6,2.5c-0.1,1-0.4,1.8-0.4,2.8
		c-0.1,0.8-0.1,1.7-0.1,2.6c0,0.8,0,1.8,0.1,2.6c0,1,0.2,1.8,0.4,2.6c0.1,1,0.4,1.8,0.6,2.6c0.4,0.8,0.6,1.7,1,2.5
		c0.4,0.8,0.7,1.7,1.2,2.4c0.4,0.8,0.8,1.6,1.3,2.3c0.5,0.8,1.1,1.4,1.6,2.2c0.6,0.7,1.2,1.4,1.8,2c0.7,0.6,1.3,1.2,2,1.8
		c0.7,0.6,1.4,1.1,2.2,1.6c0.7,0.5,1.4,1,2.3,1.4c0.8,0.4,1.6,0.7,2.4,1.1s1.7,0.7,2.5,1c0.8,0.2,1.8,0.5,2.6,0.6
		c0.8,0.2,1.8,0.4,2.6,0.4c0.8,0.1,1.8,0.1,2.6,0.1c1,0,1.8,0,2.8-0.1c0.8,0,1.7-0.1,2.6-0.4c0.8-0.1,1.7-0.4,2.5-0.6
		c0.8-0.2,1.7-0.6,2.5-1s1.7-0.7,2.5-1.1c0.7-0.5,1.6-1,2.3-1.4c0.7-0.5,1.4-1,2.2-1.6c0.6-0.6,1.3-1.2,1.9-1.8
		c0.6-0.6,1.2-1.3,1.8-2c0.6-0.7,1.1-1.3,1.7-2.2c0.5-0.7,1-1.4,1.3-2.3c0.5-0.7,0.8-1.6,1.2-2.4c0.2-0.8,0.6-1.7,0.8-2.5
		c0.2-0.8,0.5-1.7,0.7-2.6c0.1-0.8,0.2-1.7,0.4-2.6c0.1-0.8,0.1-1.8,0.1-2.6c0-1,0-1.8-0.1-2.6c-0.1-1-0.2-1.8-0.5-2.8
		c-0.1-0.8-0.4-1.7-0.6-2.5c-0.2-0.8-0.6-1.7-0.8-2.5c-0.4-0.8-0.8-1.7-1.2-2.4c-0.5-0.8-0.8-1.6-1.4-2.4c-0.5-0.7-1-1.4-1.6-2.2
		c-0.6-0.6-1.2-1.3-1.8-1.9c-0.6-0.6-1.3-1.2-1.9-1.8c-0.7-0.6-1.4-1.1-2.2-1.6c-0.8-0.6-1.6-1-2.3-1.4c-0.8-0.4-1.7-0.8-2.5-1.1
		c-0.8-0.4-1.7-0.7-2.5-1c-0.8-0.2-1.7-0.5-2.5-0.6c-1-0.2-1.8-0.4-2.6-0.5C466.1,445.5,465.2,445.4,464.3,445.4z M127.7,241.3
		c-0.7,0-1.4,0-2-0.1c-0.7-0.1-1.3-0.4-2-0.6c-0.6-0.2-1.2-0.6-1.8-1c-0.6-0.5-1.1-0.8-1.6-1.3c-0.5-0.5-1-1.1-1.3-1.7
		c-0.4-0.5-0.7-1.1-1-1.8c-0.2-0.6-0.5-1.2-0.6-1.9c-0.1-0.7-0.2-1.3-0.2-2c0-0.7,0.1-1.4,0.2-2c0.1-0.7,0.4-1.3,0.6-2
		c0.2-0.6,0.6-1.2,1-1.8c0.4-0.6,0.8-1.1,1.3-1.6s1-1,1.6-1.3c0.6-0.4,1.2-0.7,1.8-1c0.7-0.2,1.3-0.5,2-0.6c0.6-0.1,1.3-0.2,2-0.2
		c0.7,0,1.3,0.1,2,0.2c0.6,0.1,1.3,0.4,1.9,0.6c0.7,0.2,1.3,0.6,1.8,1c0.6,0.4,1.2,0.8,1.7,1.3c0.5,0.5,0.8,1,1.3,1.6
		c0.4,0.6,0.6,1.2,1,1.8c0.2,0.7,0.4,1.3,0.6,2c0.1,0.6,0.1,1.3,0.1,2c0,0.7,0,1.3-0.1,2c-0.2,0.7-0.4,1.3-0.6,1.9
		c-0.4,0.7-0.6,1.3-1,1.8c-0.5,0.6-0.8,1.2-1.3,1.7c-0.5,0.5-1.1,0.8-1.7,1.3c-0.5,0.4-1.1,0.7-1.8,1c-0.6,0.2-1.3,0.5-1.9,0.6
		C129,241.3,128.4,241.3,127.7,241.3z M127.7,203.4c-1,0-1.8,0.1-2.8,0.1c-0.8,0.1-1.7,0.2-2.6,0.5c-0.8,0.1-1.7,0.4-2.5,0.6
		c-0.8,0.2-1.7,0.6-2.5,0.8c-0.8,0.4-1.7,0.8-2.5,1.2c-0.7,0.5-1.6,0.8-2.3,1.4c-0.7,0.5-1.4,1-2.2,1.6c-0.6,0.6-1.3,1.2-1.9,1.8
		c-0.6,0.6-1.2,1.3-1.8,1.9c-0.6,0.7-1.1,1.4-1.7,2.2c-0.5,0.8-0.8,1.6-1.3,2.4c-0.5,0.7-0.8,1.6-1.2,2.4c-0.2,0.8-0.6,1.7-0.8,2.5
		c-0.2,0.8-0.5,1.7-0.6,2.5c-0.2,1-0.4,1.8-0.5,2.8c-0.1,0.8-0.1,1.7-0.1,2.6c0,0.8,0,1.8,0.1,2.6c0.1,1,0.2,1.8,0.5,2.6
		c0.1,1,0.4,1.8,0.6,2.6c0.2,0.8,0.6,1.7,0.8,2.5c0.4,0.8,0.7,1.7,1.2,2.4c0.5,0.8,0.8,1.6,1.3,2.3c0.6,0.8,1.1,1.4,1.7,2.2
		c0.6,0.7,1.2,1.4,1.8,2c0.6,0.6,1.3,1.2,1.9,1.8c0.7,0.6,1.4,1.1,2.2,1.6c0.7,0.5,1.6,1,2.3,1.4c0.8,0.4,1.7,0.7,2.5,1.1
		c0.8,0.4,1.7,0.7,2.5,1c0.8,0.2,1.7,0.5,2.5,0.6c1,0.2,1.8,0.4,2.6,0.4c1,0.1,1.8,0.2,2.8,0.2c0.8,0,1.8-0.1,2.6-0.2
		c0.8,0,1.8-0.1,2.6-0.4c0.8-0.1,1.8-0.4,2.6-0.6c0.8-0.2,1.7-0.6,2.5-1c0.8-0.4,1.6-0.7,2.4-1.1c0.8-0.5,1.6-1,2.3-1.4
		c0.7-0.5,1.4-1,2.2-1.6c0.7-0.6,1.3-1.2,2-1.8c0.6-0.6,1.2-1.3,1.8-2c0.5-0.7,1.1-1.3,1.6-2.2c0.5-0.7,1-1.4,1.3-2.3
		c0.5-0.7,0.8-1.6,1.2-2.4c0.4-0.8,0.6-1.7,1-2.5c0.2-0.8,0.5-1.7,0.6-2.6c0.1-0.8,0.4-1.7,0.4-2.6c0.1-0.8,0.1-1.8,0.1-2.6
		c0-1,0-1.8-0.1-2.6c0-1-0.2-1.8-0.4-2.8c-0.1-0.8-0.4-1.7-0.6-2.5c-0.4-0.8-0.6-1.7-1-2.5c-0.4-0.8-0.7-1.7-1.2-2.4
		c-0.4-0.8-0.8-1.6-1.3-2.4c-0.5-0.7-1.1-1.4-1.6-2.2c-0.6-0.6-1.2-1.3-1.8-1.9c-0.7-0.6-1.3-1.2-2-1.8c-0.7-0.6-1.4-1.1-2.2-1.6
		c-0.7-0.6-1.4-1-2.3-1.4c-0.8-0.4-1.6-0.8-2.4-1.1c-0.8-0.4-1.7-0.7-2.5-1c-0.8-0.2-1.8-0.5-2.6-0.6c-0.8-0.2-1.8-0.4-2.6-0.5
		C129.5,203.6,128.5,203.4,127.7,203.4z M125.4,168.9c0.5,0.4,1,0.6,1.6,0.7c0.5,0.2,1,0.4,1.6,0.5c0.5,0,1.1,0.1,1.7,0
		c0.5,0,1.1-0.1,1.6-0.2c0.6-0.1,1.1-0.2,1.6-0.5c0.5-0.2,1-0.6,1.4-0.8c0.5-0.4,0.8-0.7,1.2-1.1c0.4-0.5,0.7-1,1-1.3
		c2.4-4,5-7.8,7.8-11.4c0.4-0.4,0.7-0.8,1-1.3c0.2-0.5,0.4-1.1,0.6-1.6c0.1-0.5,0.2-1.1,0.2-1.6c0-0.6,0-1.2,0-1.7
		c-0.1-0.6-0.2-1.1-0.4-1.7c-0.2-0.5-0.4-1-0.7-1.4c-0.2-0.5-0.6-1-1-1.3c-0.2-0.5-0.7-0.8-1.1-1.2c-0.5-0.4-1-0.6-1.4-0.8
		c-0.5-0.2-1-0.5-1.6-0.6c-0.5-0.2-1.1-0.2-1.6-0.4c-0.6,0-1.1,0-1.7,0.1c-0.6,0-1.1,0.1-1.6,0.2c-0.6,0.2-1.1,0.5-1.6,0.7
		c-0.5,0.2-1,0.6-1.3,1c-0.5,0.4-0.8,0.7-1.2,1.2c-3.2,4.1-6.2,8.4-9,13c-0.2,0.5-0.5,1-0.7,1.6c-0.1,0.5-0.2,1-0.4,1.6
		c-0.1,0.5-0.1,1.1-0.1,1.7c0.1,0.5,0.1,1.1,0.2,1.6c0.1,0.6,0.4,1.1,0.6,1.6c0.2,0.5,0.5,1,0.8,1.4c0.4,0.5,0.7,0.8,1.1,1.2
		C124.5,168.3,124.9,168.6,125.4,168.9z M165.6,114.2c-4.4,2.8-8.9,5.8-13,9c-0.5,0.4-0.8,0.7-1.2,1.2c-0.4,0.4-0.7,0.8-1,1.3
		c-0.2,0.5-0.5,1-0.7,1.6c-0.1,0.5-0.2,1-0.2,1.6c-0.1,0.6-0.1,1.1-0.1,1.7c0.1,0.5,0.1,1.1,0.4,1.6c0.1,0.6,0.4,1.1,0.6,1.6
		c0.2,0.5,0.5,1,0.8,1.4c0.4,0.4,0.7,0.7,1.2,1.1c0.4,0.4,0.8,0.7,1.3,1c0.5,0.4,1,0.5,1.4,0.7c0.6,0.1,1.1,0.2,1.7,0.4
		c0.5,0,1.1,0,1.7,0c0.5,0,1.1-0.1,1.6-0.2c0.6-0.2,1.1-0.4,1.6-0.6c0.5-0.2,1-0.6,1.3-1c3.6-2.8,7.5-5.4,11.4-7.8
		c0.4-0.2,0.8-0.6,1.3-1c0.4-0.4,0.7-0.8,1.1-1.2c0.2-0.5,0.6-1,0.8-1.4c0.2-0.5,0.4-1.1,0.5-1.6c0.1-0.5,0.2-1.1,0.2-1.7
		c0.1-0.5,0-1.1,0-1.6c-0.1-0.6-0.2-1.1-0.5-1.7c-0.1-0.5-0.4-1-0.7-1.4c-0.2-0.5-0.6-1-1-1.3c-0.4-0.4-0.7-0.7-1.2-1.1
		c-0.5-0.4-1-0.6-1.4-0.8c-0.5-0.2-1-0.5-1.6-0.6c-0.5-0.1-1.1-0.2-1.6-0.2c-0.6,0-1.1,0-1.7,0.1c-0.6,0.1-1.1,0.2-1.6,0.4
		C166.6,113.7,166.1,114,165.6,114.2z M306.5,140.6c0.8,0,1.7-0.2,2.5-0.5s1.6-0.6,2.3-1.1c0.7-0.5,1.3-1.1,1.9-1.8
		c0.5-0.7,0.8-1.4,1.2-2.2c0.2-0.8,0.5-1.7,0.5-2.5c0-1,0-1.8-0.2-2.6c-0.2-0.8-0.6-1.6-1.1-2.3c-0.5-0.7-1-1.3-1.7-1.9
		c-3.7-3.1-7.6-6-11.5-8.6c-4-2.6-8.2-5-12.5-7.2c-4.3-2.2-8.7-4.1-13.2-5.8c-4.4-1.7-9-3.1-13.7-4.2c-4.7-1.2-9.5-2-14.2-2.6
		c-4.8-0.7-9.6-1-14.4-1.1c-4.8,0-9.6,0.1-14.4,0.6c-4.8,0.5-9.5,1.3-14.2,2.3c-0.6,0.1-1.1,0.4-1.6,0.5c-0.6,0.2-1.1,0.5-1.4,0.8
		c-0.5,0.4-1,0.7-1.3,1.1c-0.4,0.4-0.7,0.8-1,1.3c-0.4,0.5-0.6,1-0.8,1.4c-0.1,0.5-0.2,1.1-0.4,1.6c-0.1,0.6-0.1,1.1-0.1,1.7
		c0,0.6,0,1.1,0.1,1.7c0.1,0.5,0.4,1,0.5,1.6c0.2,0.5,0.5,1,0.8,1.4c0.4,0.4,0.7,0.8,1.1,1.2c0.4,0.4,0.8,0.7,1.3,1.1
		c0.5,0.2,1,0.5,1.4,0.7c0.5,0.2,1.1,0.4,1.6,0.5c0.6,0,1.1,0.1,1.7,0.1c0.6,0,1.1-0.1,1.7-0.2c4-0.8,8.2-1.6,12.3-1.9
		c4.2-0.5,8.3-0.6,12.5-0.6c4.2,0.1,8.3,0.4,12.5,0.8c4.1,0.6,8.2,1.3,12.3,2.4c4.1,1,8.1,2.2,11.9,3.6c4,1.4,7.8,3.1,11.5,5
		c3.7,1.8,7.3,4,10.8,6.2c3.5,2.3,6.7,4.8,10,7.4c0.7,0.6,1.6,1.2,2.5,1.4C304.5,140.4,305.5,140.6,306.5,140.6z"/>
</g>
</svg>
