<?xml version="1.0" encoding="utf-8"?>
<!-- Generator: Adobe Illustrator 24.0.1, SVG Export Plug-In . SVG Version: 6.00 Build 0)  -->
<svg version="1.1" id="Camada_1" xmlns="http://www.w3.org/2000/svg" xmlns:xlink="http://www.w3.org/1999/xlink" x="0px" y="0px"
	 viewBox="0 0 24 24" style="enable-background:new 0 0 24 24;" xml:space="preserve">
<style type="text/css">
	.st0{fill:url(#SVGID_1_);}
</style>
<linearGradient id="SVGID_1_" gradientUnits="userSpaceOnUse" x1="1.0057" y1="12" x2="23" y2="12">
	<stop  offset="0" style="stop-color:#392D69"/>
	<stop  offset="0.4383" style="stop-color:#865BC4"/>
	<stop  offset="1" style="stop-color:#392D69"/>
</linearGradient>
<path class="st0" d="M23,7c0-0.4-0.2-0.7-0.5-0.9l-10-5c-0.3-0.1-0.6-0.1-0.9,0l-10,5C1.1,6.4,0.9,7,1.1,7.5
	c0.1,0.2,0.2,0.3,0.4,0.4l3.2,1.6l-3.2,1.6c-0.5,0.3-0.7,0.9-0.4,1.3c0.1,0.2,0.2,0.3,0.4,0.4l3.2,1.6l-3.2,1.6
	c-0.5,0.3-0.7,0.9-0.4,1.3c0.1,0.2,0.2,0.3,0.4,0.4l10,5c0.3,0.1,0.6,0.1,0.9,0l10-5c0.5-0.3,0.7-0.9,0.4-1.3
	c-0.1-0.2-0.2-0.3-0.4-0.4l-3.2-1.6l3.2-1.6c0.5-0.3,0.7-0.9,0.4-1.3c-0.1-0.2-0.2-0.3-0.4-0.4l-3.2-1.6l3.2-1.6
	C22.8,7.7,23,7.4,23,7z M19.8,17L12,20.9L4.2,17L7,15.6l4.6,2.3c0.3,0.1,0.6,0.1,0.9,0l4.6-2.3L19.8,17z M19.8,12L12,15.9L4.2,12
	L7,10.6l4.6,2.3c0.3,0.1,0.6,0.1,0.9,0l4.6-2.3L19.8,12z M12,10.9L4.2,7L12,3.1L19.8,7L12,10.9z"/>
</svg>
