<?xml version="1.0" encoding="utf-8"?>
<!-- Generator: Adobe Illustrator 24.0.1, SVG Export Plug-In . SVG Version: 6.00 Build 0)  -->
<svg version="1.1" id="Layer_1" xmlns="http://www.w3.org/2000/svg" xmlns:xlink="http://www.w3.org/1999/xlink" x="0px" y="0px"
	 viewBox="0 0 512 512" style="enable-background:new 0 0 512 512;" xml:space="preserve">
<style type="text/css">
	.st0{fill:url(#SVGID_1_);}
</style>
<linearGradient id="SVGID_1_" gradientUnits="userSpaceOnUse" x1="24.7807" y1="256.8903" x2="485.6832" y2="256.8903">
	<stop  offset="0" style="stop-color:#392D69"/>
	<stop  offset="0.4383" style="stop-color:#865BC4"/>
	<stop  offset="1" style="stop-color:#392D69"/>
</linearGradient>
<path class="st0" d="M24.8,131.8v186.1c0,4.9,4,9,9,9h16.1v37.1c-0.4,4.9,3.3,9.2,8.3,9.6c4.9,0.4,9.2-3.3,9.6-8.3
	c0-0.5,0-0.9,0-1.4v-37.1h16.2c4.9,0,9-4,9-9V131.8c0-4.9-3.9-8.9-8.9-9c0,0-0.1,0-0.1,0H67.7V83.5c0.4-4.9-3.3-9.2-8.3-9.6
	c-4.9-0.4-9.2,3.3-9.6,8.3c0,0.5,0,0.9,0,1.4v39.4H33.7c-4.9,0-8.9,3.9-9,8.9C24.8,131.8,24.8,131.8,24.8,131.8z M42.6,140.8H75
	v168.1H42.6V140.8z M460.8,160.6v-39.1c0.4-4.9-3.3-9.2-8.3-9.6c-4.9-0.4-9.2,3.3-9.6,8.3c0,0.5,0,0.9,0,1.4v39.1h-16.4
	c-4.9,0-8.9,4-8.9,9v110.7c0,4.9,3.9,8.9,8.9,9c0,0,0,0,0.1,0h16.2v42c-0.4,4.9,3.3,9.2,8.3,9.6c4.9,0.4,9.2-3.3,9.6-8.3
	c0-0.5,0-0.9,0-1.4v-42h16.2c4.9,0,9-4,9-9V169.5c0-4.9-4-8.9-9-9H460.8z M467.8,271.4h-32.3v-92.9h32.3V271.4z M252.7,353.7
	c4.9,0,8.9-4,8.9-8.9c0,0,0,0,0-0.1v-36.9h15.8c4.9,0,9-4,9-9V107.5c0-4.9-4-9-9-9h-15.9V59.9c0.4-4.9-3.3-9.2-8.3-9.6
	c-4.9-0.4-9.2,3.3-9.6,8.3c0,0.5,0,0.9,0,1.4v38.5h-16.5c-4.9,0-9,4-9,9c0,0.1,0,0.1,0,0.2v191.4c0,4.9,4,9,9,9h16.5v36.8
	c0,4.9,4,9,9,9L252.7,353.7z M236.1,116.2h32.3v173.7h-32.3V116.2z M347.1,463.6c4.9,0,8.9-3.9,9-8.9c0,0,0,0,0-0.1v-39h15.8
	c4.9,0,8.9-3.9,9-8.9c0,0,0,0,0-0.1V218.1c0-4.9-4-8.9-8.9-8.9c0,0,0,0-0.1,0h-15.8v-37.4c-0.4-4.9-4.7-8.6-9.6-8.3
	c-4.4,0.3-7.9,3.8-8.3,8.3v37.4h-16.5c-4.9,0-8.9,3.9-9,8.9c0,0,0,0,0,0.1v188.7c0,4.9,4,8.9,8.9,8.9c0,0,0,0,0.1,0h16.5v39
	C338.2,459.6,342.2,463.6,347.1,463.6z M330.6,227H363v170.8h-32.4V227z M153.6,433.9c4.8-0.1,8.7-4.1,8.7-9v-36.7h16.1
	c4.9,0,8.9-3.9,9-8.9c0,0,0,0,0-0.1V218.1c0-4.9-4-8.9-8.9-8.9c0,0,0,0-0.1,0h-16.1V172c0.4-4.9-3.3-9.2-8.3-9.6
	c-4.9-0.4-9.2,3.3-9.6,8.3c0,0.5,0,0.9,0,1.4v37.1h-16.2c-4.9,0-8.9,3.9-9,8.9c0,0,0,0,0,0.1v161.3c0,4.9,4,8.9,8.9,8.9
	c0,0,0,0,0.1,0h16.2V425c0,4.9,4,9,9,9C153.5,433.9,153.5,433.9,153.6,433.9z M137.2,227h32.4v143.4h-32.4V227z"/>
</svg>
